<?xml version="1.0" encoding="UTF-8"?>
<svg id="Layer_1" data-name="Layer 1" xmlns="http://www.w3.org/2000/svg" viewBox="0 0 2000 2500">
  <defs>
    <style>
      .cls-1 {
        fill: #fff;
      }
    </style>
  </defs>
  <path class="cls-1" d="M621.64,1107.84c-82.99-114.29-209.46-214.39-384.69-304.17-11.4-5.84-25.4.04-29.01,12.32-.04.14-.08.27-.12.4-2.78,9.49,1.58,19.58,10.38,24.08,169.24,86.7,290.89,182.67,370.01,291.64,58.31,80.3,92.38,165.38,104.64,262.94,8.35,4.91,22.12,11.52,43.39,18.03-10.64-113.69-48.4-214.08-114.59-305.24Z"/>
  <path class="cls-1" d="M696.18,1543.69c-15.7,265.73-128.61,455.2-180.12,528.71,9.99,9.73,20.25,19.19,30.81,28.3,21.01-29.32,52.53-77.89,84.21-143.69,43.53-90.43,94.4-229.86,105.9-403.14-.26-.06-.54-.11-.8-.17-14.62-3.21-27.89-6.53-39.99-10.02Z"/>
  <path class="cls-1" d="M604.11,2145.09c11.38,7.92,22.99,15.54,34.86,22.79,18.2-33.08,43.13-83.06,68.18-147.95,39.51-102.34,85.9-260.87,94.02-454.86-14.29-1.98-28.03-4.17-41.11-6.59-10.91,285.51-107.64,497.54-155.95,586.6Z"/>
  <path class="cls-1" d="M800.2,1427.26c-8.88-154.34-44.83-288.27-111.23-416.35-76.05-146.7-191.85-283.04-352.25-414.36-9.44-7.73-23.55-5.64-30.19,4.6-.08.12-.16.24-.23.36-5.68,8.79-3.82,20.41,4.28,27.04,155.95,127.68,268.29,259.74,341.71,401.37,62.09,119.76,96.34,245.18,105.92,389.11,5.78,1.38,11.94,2.74,18.54,4.03,7.53,1.48,15.35,2.88,23.45,4.19Z"/>
  <path class="cls-1" d="M791.76,1002.77c-58.67-182.25-157.88-370.87-302.16-574.09-6.96-9.81-20.92-11.49-30.01-3.62-.11.1-.22.19-.33.29-7.98,6.92-9.37,18.77-3.26,27.38,141.74,199.66,239.09,384.54,296.44,562.7,49.86,154.88,65.68,293.94,70.15,415.14,13.29,1.8,27.16,3.4,41.52,4.77-4.24-125.63-20.14-270.43-72.34-432.57Z"/>
  <path class="cls-1" d="M703.23,2202.58c12.42,5.89,25.05,11.41,37.86,16.57,38.96-102.47,116.19-342.2,123.74-647.05-14.1-1.2-27.89-2.57-41.23-4.14-6.89,299.09-82.28,534.11-120.37,634.62Z"/>
  <path class="cls-1" d="M685.69,308.62c-4.27-10.9-16.86-16.01-27.51-11.15-.13.06-.26.12-.39.18-9.89,4.52-14.5,16-10.54,26.13,197.23,503.84,233.61,832.2,239.11,1113.47,13.47,1.04,27.28,1.9,41.38,2.56-5.31-285.83-41.55-619.09-242.05-1131.19Z"/>
  <path class="cls-1" d="M810.8,2243c13.2,3.73,26.57,7.04,40.07,10,24.96-104.15,73.65-348.01,77.42-676.88-14.01-.6-27.78-1.37-41.29-2.31-3.56,326.16-51.76,567.22-76.21,669.19Z"/>
  <path class="cls-1" d="M922.28,2264.76c13.61,1.52,27.33,2.68,41.17,3.4,8.99-103.6,25.16-337.85,26.21-690.58-13.92-.09-27.71-.33-41.31-.74-1.03,352.26-17.17,585.52-26.07,687.92Z"/>
  <path class="cls-1" d="M904.85,249.53c-1.55-11.23-11.96-19.1-23.18-17.49-.14.02-.28.04-.42.06-11.13,1.6-18.86,11.95-17.33,23.09,74.57,541.58,83.31,917.95,84.34,1185.42,13.59.45,27.38.73,41.32.83-1.01-268.71-9.7-647.03-84.73-1191.92Z"/>
  <path class="cls-1" d="M1263.04,1554.12c11.53,173.16,62.37,312.51,105.88,402.89,31.68,65.8,63.2,114.37,84.21,143.69,10.56-9.12,20.82-18.57,30.81-28.3-51.49-73.48-164.32-262.83-180.1-528.38-11.8,3.37-24.68,6.59-38.84,9.69-.64.14-1.32.27-1.96.41Z"/>
  <path class="cls-1" d="M1792.19,816.39c-.04-.14-.08-.27-.12-.4-3.61-12.29-17.61-18.17-29.01-12.33-175.23,89.78-301.7,189.88-384.69,304.17-66.27,91.26-104.03,191.77-114.63,305.61,20.9-6.3,34.71-12.74,43.33-17.66,12.18-97.87,46.28-183.17,104.73-263.67,79.12-108.96,200.78-204.94,370.01-291.64,8.8-4.51,13.16-14.6,10.38-24.08Z"/>
  <path class="cls-1" d="M1241.78,1419.32c9.56-144.05,43.81-269.55,105.94-389.4,73.42-141.63,185.76-273.69,341.71-401.37,8.1-6.63,9.96-18.26,4.28-27.04-.08-.12-.16-.24-.23-.36-6.64-10.24-20.74-12.33-30.19-4.6-160.4,131.32-276.2,267.65-352.25,414.36-66.43,128.14-102.37,262.12-111.24,416.54,8.51-1.37,16.74-2.82,24.63-4.38,6.15-1.21,11.92-2.46,17.35-3.75Z"/>
  <path class="cls-1" d="M1292.85,2019.93c25.05,64.89,49.98,114.86,68.18,147.95,11.86-7.25,23.48-14.86,34.86-22.79-48.3-89.05-144.99-300.99-155.94-586.38-13.08,2.4-26.83,4.57-41.11,6.53,8.14,193.92,54.52,352.39,94.01,454.7Z"/>
  <path class="cls-1" d="M1247.57,1015.43c57.35-178.16,154.7-363.04,296.44-562.7,6.11-8.61,4.73-20.47-3.26-27.38-.11-.1-.22-.19-.33-.29-9.09-7.87-23.05-6.19-30.01,3.62-144.28,203.22-243.49,391.84-302.16,574.09-52.21,162.19-68.11,307.02-72.34,432.68,14.35-1.36,28.22-2.93,41.52-4.72,4.46-121.24,20.28-260.35,70.16-415.3Z"/>
  <path class="cls-1" d="M1258.91,2219.15c12.81-5.16,25.44-10.69,37.86-16.57-38.08-100.49-113.45-335.45-120.37-634.47-13.34,1.56-27.13,2.91-41.23,4.09,7.56,304.81,84.78,544.5,123.73,646.95Z"/>
  <path class="cls-1" d="M1149.13,2253c13.5-2.96,26.87-6.27,40.07-10-24.44-101.96-72.64-342.99-76.2-669.1-13.51.92-27.28,1.68-41.29,2.27,3.78,328.84,52.46,572.69,77.42,676.83Z"/>
  <path class="cls-1" d="M1352.74,323.77c3.97-10.13-.64-21.61-10.54-26.13-.13-.06-.26-.12-.39-.18-10.65-4.86-23.24.25-27.51,11.15-200.52,512.13-236.75,845.4-242.05,1131.24,14.09-.65,27.9-1.49,41.38-2.52,5.49-281.29,41.85-609.66,239.11-1113.56Z"/>
  <path class="cls-1" d="M1302.7,1448.02c-11.45,4.55-25.24,9.12-41.79,13.38-6.67,1.71-13.8,3.38-21.4,4.96-2.08.44-4.16.87-6.32,1.3-11.18,2.2-22.98,4.21-35.25,6.05-7.08,1.06-14.34,2.05-21.73,2.99-13.34,1.69-27.17,3.18-41.4,4.46-7.18.65-14.45,1.25-21.82,1.79-13.5.99-27.31,1.79-41.34,2.42-6.63.29-13.3.55-20.02.77-13.62.43-27.41.68-41.32.76-3.24.02-6.47.05-9.72.05-3.64,0-7.27-.03-10.9-.05-13.91-.09-27.7-.36-41.32-.8-6.72-.22-13.4-.48-20.02-.78-14.04-.64-27.84-1.45-41.34-2.45-7.37-.55-14.64-1.15-21.82-1.8-14.24-1.3-28.06-2.8-41.4-4.51-7.4-.95-14.65-1.95-21.73-3.02-11.84-1.79-23.25-3.74-34.07-5.87-2.56-.5-5.04-1.02-7.5-1.54-7.61-1.61-14.72-3.29-21.4-5.03-16.59-4.32-30.4-8.95-41.81-13.54.52,11.26.79,22.67.79,34.28,0,5.01-.13,9.93-.2,14.89,12.03,3.83,25.7,7.5,41.17,11.04,2.26.52,4.53,1.03,6.87,1.54,4.92,1.08,9.98,2.11,15.13,3.11,13.09,2.56,26.88,4.88,41.29,6.95,7.12,1.03,14.43,1.98,21.83,2.88,13.36,1.63,27.14,3.08,41.3,4.32,7.16.62,14.43,1.19,21.77,1.71,13.52.96,27.29,1.76,41.32,2.37,6.57.28,13.19.53,19.85.74,13.6.42,27.4.66,41.32.74,3.62.02,7.23.06,10.87.06,3.25,0,6.47-.03,9.7-.05,13.92-.08,27.71-.31,41.32-.72,6.66-.2,13.28-.43,19.85-.71,14.03-.6,27.8-1.39,41.32-2.34,7.34-.51,14.6-1.08,21.77-1.69,14.16-1.22,27.94-2.65,41.3-4.27,7.41-.9,14.71-1.85,21.84-2.87,14.4-2.05,28.19-4.36,41.29-6.89,5.55-1.07,11.01-2.18,16.3-3.33,1.94-.42,3.82-.85,5.7-1.28,15.44-3.51,29.12-7.14,41.17-10.93-.07-5.08-.2-10.13-.2-15.26,0-11.45.27-22.7.77-33.81Z"/>
  <path class="cls-1" d="M1036.55,2268.16c13.84-.72,27.56-1.88,41.17-3.4-8.89-102.4-25.04-335.65-26.07-687.89-13.61.4-27.4.64-41.31.71,1.05,352.73,17.22,586.98,26.21,690.58Z"/>
  <path class="cls-1" d="M1136.08,255.2c1.53-11.14-6.19-21.49-17.33-23.09-.14-.02-.28-.04-.42-.06-11.22-1.61-21.63,6.26-23.18,17.49-75.03,544.89-83.72,923.22-84.73,1191.92,13.94-.08,27.73-.35,41.32-.79,1.02-267.48,9.76-643.85,84.34-1185.46Z"/>
</svg>