<?xml version="1.0" encoding="UTF-8"?>
<svg id="Layer_1" data-name="Layer 1" xmlns="http://www.w3.org/2000/svg" viewBox="0 0 2000 1300">
  <defs>
    <style>
      .cls-1 {
        fill: #fff;
      }

      .cls-2 {
        fill: #fcb222;
      }
    </style>
  </defs>
  <g>
    <path class="cls-2" d="M893.38,356.96c-23.39-32.21-59.02-60.41-108.4-85.71-3.21-1.65-7.16.01-8.17,3.47-.01.04-.02.08-.03.11-.78,2.67.45,5.52,2.92,6.79,47.69,24.43,81.97,51.47,104.26,82.18,16.43,22.63,26.03,46.6,29.48,74.09,2.35,1.38,6.23,3.25,12.23,5.08-3-32.04-13.64-60.32-32.29-86.01Z"/>
    <path class="cls-2" d="M914.39,479.77c-4.43,74.88-36.24,128.27-50.75,148.98,2.82,2.74,5.71,5.41,8.68,7.98,5.92-8.26,14.8-21.95,23.73-40.49,12.27-25.48,26.6-64.77,29.84-113.6-.07-.02-.15-.03-.23-.05-4.12-.9-7.86-1.84-11.27-2.82Z"/>
    <path class="cls-2" d="M888.45,649.24c3.21,2.23,6.48,4.38,9.82,6.42,5.13-9.32,12.15-23.4,19.21-41.69,11.13-28.84,24.2-73.51,26.49-128.17-4.03-.56-7.9-1.18-11.58-1.86-3.08,80.45-30.33,140.2-43.94,165.29Z"/>
    <path class="cls-2" d="M943.7,446.96c-2.5-43.49-12.63-81.23-31.34-117.32-21.43-41.34-54.06-79.75-99.26-116.76-2.66-2.18-6.64-1.59-8.51,1.3-.02.03-.04.07-.07.1-1.6,2.48-1.08,5.75,1.21,7.62,43.94,35.98,75.6,73.19,96.29,113.1,17.5,33.75,27.15,69.09,29.85,109.64,1.63.39,3.37.77,5.23,1.14,2.12.42,4.33.81,6.61,1.18Z"/>
    <path class="cls-2" d="M941.32,327.35c-16.53-51.36-44.49-104.5-85.14-161.77-1.96-2.76-5.9-3.24-8.46-1.02-.03.03-.06.05-.09.08-2.25,1.95-2.64,5.29-.92,7.72,39.94,56.26,67.37,108.36,83.53,158.56,14.05,43.64,18.51,82.83,19.77,116.98,3.75.51,7.65.96,11.7,1.34-1.19-35.4-5.68-76.2-20.38-121.89Z"/>
    <path class="cls-2" d="M916.38,665.43c3.5,1.66,7.06,3.22,10.67,4.67,10.98-28.87,32.74-96.43,34.87-182.33-3.97-.34-7.86-.72-11.62-1.17-1.94,84.28-23.19,150.5-33.92,178.82Z"/>
    <path class="cls-2" d="M911.43,131.75c-1.2-3.07-4.75-4.51-7.75-3.14-.04.02-.07.03-.11.05-2.79,1.27-4.09,4.51-2.97,7.36,55.58,141.97,65.83,234.5,67.38,313.75,3.8.29,7.69.53,11.66.72-1.5-80.54-11.71-174.45-68.21-318.75Z"/>
    <path class="cls-2" d="M946.69,676.82c3.72,1.05,7.49,1.98,11.29,2.82,7.03-29.35,20.75-98.06,21.82-190.73-3.95-.17-7.83-.39-11.63-.65-1,91.91-14.59,159.83-21.47,188.56Z"/>
    <path class="cls-2" d="M978.1,682.96c3.84.43,7.7.76,11.6.96,2.53-29.19,7.09-95.2,7.38-194.59-3.92-.02-7.81-.09-11.64-.21-.29,99.26-4.84,164.99-7.34,193.84Z"/>
    <path class="cls-2" d="M973.19,115.1c-.44-3.16-3.37-5.38-6.53-4.93-.04,0-.08.01-.12.02-3.14.45-5.31,3.37-4.88,6.51,21.01,152.61,23.48,258.66,23.76,334.03,3.83.13,7.72.21,11.64.23-.28-75.72-2.73-182.32-23.88-335.86Z"/>
    <path class="cls-2" d="M1074.12,482.71c3.25,48.79,17.58,88.06,29.83,113.53,8.93,18.54,17.81,32.23,23.73,40.49,2.98-2.57,5.87-5.23,8.68-7.97-14.51-20.71-46.3-74.06-50.75-148.89-3.32.95-6.95,1.86-10.95,2.73-.18.04-.37.08-.55.12Z"/>
    <path class="cls-2" d="M1223.22,274.83s-.02-.08-.03-.11c-1.02-3.46-4.96-5.12-8.18-3.47-49.38,25.3-85.01,53.5-108.4,85.71-18.67,25.71-29.31,54.04-32.3,86.12,5.89-1.78,9.78-3.59,12.21-4.98,3.43-27.58,13.04-51.61,29.51-74.3,22.3-30.7,56.58-57.75,104.26-82.18,2.48-1.27,3.71-4.11,2.92-6.79Z"/>
    <path class="cls-2" d="M1068.13,444.73c2.69-40.59,12.35-75.96,29.85-109.72,20.69-39.91,52.34-77.12,96.29-113.1,2.28-1.87,2.81-5.14,1.21-7.62-.02-.03-.04-.07-.07-.1-1.87-2.89-5.84-3.48-8.51-1.3-45.2,37-77.83,75.42-99.26,116.76-18.72,36.11-28.85,73.86-31.35,117.37,2.4-.39,4.72-.8,6.94-1.23,1.73-.34,3.36-.69,4.89-1.06Z"/>
    <path class="cls-2" d="M1082.52,613.97c7.06,18.28,14.08,32.37,19.21,41.69,3.34-2.04,6.62-4.19,9.82-6.42-13.61-25.09-40.85-84.81-43.94-165.23-3.69.68-7.56,1.29-11.59,1.84,2.29,54.64,15.36,99.3,26.49,128.13Z"/>
    <path class="cls-2" d="M1069.76,330.92c16.16-50.2,43.59-102.3,83.53-158.56,1.72-2.43,1.33-5.77-.92-7.72-.03-.03-.06-.05-.09-.08-2.56-2.22-6.5-1.74-8.46,1.02-40.66,57.26-68.61,110.41-85.14,161.77-14.71,45.7-19.19,86.51-20.38,121.92,4.04-.38,7.95-.83,11.7-1.33,1.26-34.16,5.71-73.36,19.77-117.02Z"/>
    <path class="cls-2" d="M1072.95,670.1c3.61-1.45,7.17-3.01,10.67-4.67-10.73-28.32-31.97-94.52-33.92-178.78-3.76.44-7.64.82-11.62,1.15,2.13,85.89,23.89,153.43,34.87,182.3Z"/>
    <path class="cls-2" d="M1042.02,679.64c3.81-.83,7.57-1.77,11.29-2.82-6.89-28.73-20.47-96.65-21.47-188.54-3.81.26-7.69.47-11.63.64,1.06,92.66,14.78,161.37,21.82,190.72Z"/>
    <path class="cls-2" d="M1099.4,136.02c1.12-2.85-.18-6.09-2.97-7.36-.04-.02-.07-.03-.11-.05-3-1.37-6.55.07-7.75,3.14-56.5,144.31-66.71,238.22-68.21,318.76,3.97-.18,7.86-.42,11.66-.71,1.55-79.26,11.79-171.79,67.38-313.78Z"/>
    <path class="cls-2" d="M1085.3,452.82c-3.23,1.28-7.11,2.57-11.78,3.77-1.88.48-3.89.95-6.03,1.4-.59.12-1.17.25-1.78.37-3.15.62-6.47,1.19-9.93,1.7-1.99.3-4.04.58-6.12.84-3.76.48-7.65.9-11.67,1.26-2.02.18-4.07.35-6.15.5-3.8.28-7.7.5-11.65.68-1.87.08-3.75.16-5.64.22-3.84.12-7.72.19-11.64.21-.91,0-1.82.01-2.74.01-1.03,0-2.05,0-3.07-.02-3.92-.03-7.81-.1-11.64-.22-1.89-.06-3.77-.14-5.64-.22-3.95-.18-7.85-.41-11.65-.69-2.08-.15-4.13-.32-6.15-.51-4.01-.37-7.91-.79-11.67-1.27-2.09-.27-4.13-.55-6.12-.85-3.34-.5-6.55-1.05-9.6-1.65-.72-.14-1.42-.29-2.11-.43-2.14-.45-4.15-.93-6.03-1.42-4.68-1.22-8.57-2.52-11.78-3.82.15,3.17.22,6.39.22,9.66,0,1.41-.04,2.8-.06,4.2,3.39,1.08,7.24,2.11,11.6,3.11.64.15,1.28.29,1.94.43,1.39.3,2.81.59,4.26.88,3.69.72,7.57,1.38,11.63,1.96,2.01.29,4.07.56,6.15.81,3.77.46,7.65.87,11.64,1.22,2.02.18,4.07.33,6.13.48,3.81.27,7.69.5,11.64.67,1.85.08,3.72.15,5.59.21,3.83.12,7.72.19,11.64.21,1.02,0,2.04.02,3.06.02.91,0,1.82,0,2.73-.01,3.92-.02,7.81-.09,11.64-.2,1.88-.06,3.74-.12,5.59-.2,3.95-.17,7.83-.39,11.64-.66,2.07-.14,4.12-.3,6.13-.48,3.99-.34,7.87-.75,11.64-1.2,2.09-.25,4.14-.52,6.15-.81,4.06-.58,7.94-1.23,11.63-1.94,1.56-.3,3.1-.61,4.59-.94.55-.12,1.08-.24,1.61-.36,4.35-.99,8.21-2.01,11.6-3.08-.02-1.43-.06-2.85-.06-4.3,0-3.23.08-6.4.22-9.53Z"/>
    <path class="cls-2" d="M1010.3,683.91c3.9-.2,7.77-.53,11.6-.96-2.51-28.85-7.06-94.58-7.34-193.83-3.83.11-7.72.18-11.64.2.3,99.39,4.85,165.4,7.38,194.59Z"/>
    <path class="cls-2" d="M1038.34,116.7c.43-3.14-1.74-6.05-4.88-6.51-.04,0-.08-.01-.12-.02-3.16-.45-6.1,1.76-6.53,4.93-21.14,153.54-23.59,260.14-23.88,335.86,3.93-.02,7.81-.1,11.64-.22.29-75.37,2.75-181.43,23.76-334.04Z"/>
  </g>
  <g>
    <g>
      <path class="cls-1" d="M149.94,1159.33h23.84c-.47,3.54-1.39,6.7-2.75,9.47-1.37,2.77-3.09,5.13-5.16,7.06-2.07,1.94-4.49,3.42-7.26,4.46-2.77,1.04-5.8,1.55-9.07,1.55-3.67,0-7-.67-9.97-2-2.97-1.33-5.53-3.26-7.66-5.76-2.14-2.5-3.79-5.54-4.96-9.12-1.17-3.57-1.75-7.6-1.75-12.07s.58-8.52,1.75-12.12c1.17-3.61,2.81-6.66,4.91-9.17,2.1-2.5,4.66-4.42,7.66-5.76,3.01-1.34,6.31-2,9.92-2,5.61,0,10.37,1.45,14.28,4.36,3.91,2.91,6.73,6.96,8.46,12.17h9.42c-1.94-7.68-5.71-13.69-11.32-18.03-5.61-4.34-12.52-6.51-20.74-6.51-5.01,0-9.57.87-13.67,2.6-4.11,1.74-7.61,4.21-10.52,7.41-2.91,3.21-5.16,7.1-6.76,11.67-1.6,4.58-2.4,9.7-2.4,15.38s.8,10.8,2.4,15.38c1.6,4.58,3.86,8.46,6.76,11.67,2.9,3.21,6.41,5.66,10.52,7.36,4.11,1.7,8.67,2.55,13.67,2.55,5.81,0,10.74-1.2,14.78-3.61,4.04-2.4,7.26-5.68,9.67-9.82l1.3,12.22h6.51v-37.17h-31.86v7.81Z"/>
      <path class="cls-1" d="M262.56,1153.42c4.14-3.61,6.21-8.75,6.21-15.43s-2.07-11.75-6.21-15.43c-4.14-3.67-10.29-5.51-18.43-5.51h-30.65v71.63h8.62v-29.85h21.72l16.95,29.85h10.12l-18.11-30.69c4-.86,7.27-2.38,9.79-4.57ZM222.09,1125.07h21.44c5.41,0,9.47,1.02,12.17,3.06,2.7,2.04,4.06,5.33,4.06,9.87s-1.35,7.9-4.06,9.87c-2.7,1.97-6.76,2.95-12.17,2.95h-21.44v-25.75Z"/>
      <path class="cls-1" d="M346.18,1163.34c0,5.81-1.72,10.35-5.16,13.62-3.44,3.27-8.3,4.91-14.58,4.91s-11.24-1.64-14.68-4.91c-3.44-3.27-5.16-7.81-5.16-13.62v-46.28h-8.61v46.58c0,4.01.67,7.63,2,10.87,1.34,3.24,3.22,6,5.66,8.26,2.44,2.27,5.41,4.02,8.92,5.26,3.51,1.23,7.46,1.85,11.87,1.85s8.26-.62,11.77-1.85c3.51-1.24,6.48-2.99,8.92-5.26,2.44-2.27,4.32-5.02,5.66-8.26,1.34-3.24,2-6.86,2-10.87v-46.58h-8.62v46.28Z"/>
      <polygon class="cls-1" points="437.45 1179.46 398.59 1117.05 386.76 1117.05 386.76 1188.68 395.38 1188.68 395.38 1127.47 433.55 1188.68 446.07 1188.68 446.07 1117.05 437.45 1117.05 437.45 1179.46"/>
      <path class="cls-1" d="M501.48,1117.05h-23.34v71.63h23.34c11.69,0,20.65-3.07,26.9-9.22,6.24-6.14,9.37-15.03,9.37-26.65s-3.12-20.4-9.37-26.55c-6.25-6.14-15.21-9.22-26.9-9.22ZM521.86,1173.8c-4.58,4.58-11.34,6.86-20.29,6.86h-14.83v-55.6h14.83c9.02,0,15.79,2.27,20.34,6.81,4.54,4.54,6.81,11.52,6.81,20.94s-2.29,16.41-6.86,20.99Z"/>
      <path class="cls-1" d="M610.94,1154.07c-2.44-1.44-5.21-2.55-8.32-3.36-3.11-.8-6.3-1.54-9.57-2.2-2.61-.53-5.09-1.08-7.46-1.65-2.37-.57-4.46-1.3-6.26-2.2-1.8-.9-3.26-2.04-4.36-3.41-1.1-1.37-1.65-3.12-1.65-5.26,0-1.8.38-3.44,1.15-4.91.77-1.47,1.85-2.74,3.26-3.81,1.4-1.07,3.07-1.9,5.01-2.5,1.94-.6,4.07-.9,6.41-.9,2.87,0,5.46.42,7.76,1.25,2.3.84,4.29,1.99,5.96,3.46,1.67,1.47,2.97,3.19,3.91,5.16.93,1.97,1.54,4.09,1.8,6.36h9.02c-.27-3.41-1.09-6.59-2.45-9.57-1.37-2.97-3.26-5.54-5.66-7.71-2.4-2.17-5.29-3.87-8.67-5.11-3.37-1.23-7.2-1.85-11.47-1.85-3.87,0-7.36.48-10.47,1.45-3.11.97-5.74,2.35-7.91,4.16-2.17,1.8-3.82,3.96-4.96,6.46-1.14,2.5-1.7,5.29-1.7,8.37,0,3.61.73,6.55,2.2,8.82,1.47,2.27,3.41,4.11,5.81,5.51,2.4,1.4,5.11,2.49,8.11,3.26,3.01.77,6.04,1.45,9.12,2.05,2.87.6,5.54,1.2,8.01,1.8,2.47.6,4.62,1.37,6.46,2.3,1.84.94,3.27,2.14,4.31,3.61,1.03,1.47,1.55,3.37,1.55,5.71,0,1.94-.4,3.67-1.2,5.21-.8,1.54-1.94,2.85-3.41,3.96-1.47,1.1-3.27,1.94-5.41,2.5-2.14.57-4.51.85-7.11.85-3.14,0-5.94-.4-8.42-1.2-2.47-.8-4.61-1.97-6.41-3.51-1.8-1.54-3.26-3.42-4.36-5.66-1.1-2.24-1.79-4.76-2.05-7.56h-8.92c.13,3.81.93,7.3,2.4,10.47,1.47,3.17,3.49,5.91,6.06,8.21,2.57,2.3,5.66,4.09,9.27,5.36,3.61,1.27,7.68,1.9,12.22,1.9,3.81,0,7.33-.49,10.57-1.45,3.24-.97,6.03-2.35,8.37-4.16,2.34-1.8,4.16-4.01,5.46-6.61,1.3-2.6,1.95-5.58,1.95-8.92,0-3.67-.72-6.68-2.15-9.02-1.44-2.34-3.37-4.22-5.81-5.66Z"/>
      <polygon class="cls-1" points="640.59 1125.07 664.23 1125.07 664.23 1188.68 672.85 1188.68 672.85 1125.07 696.49 1125.07 696.49 1117.05 640.59 1117.05 640.59 1125.07"/>
      <path class="cls-1" d="M771.15,1163.34c0,5.81-1.72,10.35-5.16,13.62-3.44,3.27-8.3,4.91-14.58,4.91s-11.24-1.64-14.68-4.91c-3.44-3.27-5.16-7.81-5.16-13.62v-46.28h-8.62v46.58c0,4.01.67,7.63,2,10.87,1.34,3.24,3.22,6,5.66,8.26,2.44,2.27,5.41,4.02,8.92,5.26,3.51,1.23,7.46,1.85,11.87,1.85s8.27-.62,11.77-1.85c3.51-1.24,6.48-2.99,8.92-5.26,2.44-2.27,4.32-5.02,5.66-8.26,1.34-3.24,2-6.86,2-10.87v-46.58h-8.62v46.28Z"/>
      <rect class="cls-1" x="753.42" y="1098.12" width="9.22" height="11.02"/>
      <rect class="cls-1" x="739.2" y="1098.12" width="9.22" height="11.02"/>
      <path class="cls-1" d="M857.64,1176.51c-4.14,3.57-9.35,5.36-15.63,5.36-3.67,0-7-.67-9.97-2-2.97-1.33-5.53-3.26-7.66-5.76-2.14-2.5-3.79-5.56-4.96-9.17-1.17-3.61-1.75-7.61-1.75-12.02s.58-8.6,1.75-12.17c1.17-3.57,2.82-6.61,4.96-9.12,2.14-2.5,4.69-4.42,7.66-5.76,2.97-1.34,6.26-2,9.87-2,6.01,0,11.04,1.62,15.08,4.86,4.04,3.24,6.8,7.8,8.26,13.67h9.22c-.8-4.14-2.15-7.85-4.06-11.12-1.9-3.27-4.24-6.06-7.01-8.36-2.77-2.3-5.96-4.06-9.57-5.26-3.61-1.2-7.55-1.8-11.82-1.8-5.01,0-9.57.87-13.67,2.6-4.11,1.74-7.61,4.21-10.52,7.41-2.91,3.21-5.16,7.1-6.76,11.67-1.6,4.58-2.4,9.7-2.4,15.38s.8,10.89,2.4,15.43c1.6,4.54,3.86,8.41,6.76,11.62,2.9,3.21,6.41,5.66,10.52,7.36,4.11,1.7,8.67,2.55,13.67,2.55,4.47,0,8.57-.65,12.27-1.95,3.71-1.3,6.98-3.17,9.82-5.61,2.84-2.44,5.18-5.41,7.01-8.92,1.84-3.51,3.09-7.46,3.76-11.87h-9.22c-1.2,6.41-3.87,11.4-8.01,14.98Z"/>
      <polygon class="cls-1" points="958.01 1117.05 947.19 1117.05 912.13 1153.82 912.13 1117.05 903.52 1117.05 903.52 1188.68 912.13 1188.68 912.13 1165.14 922.95 1153.92 949.2 1188.68 960.02 1188.68 928.96 1147.71 958.01 1117.05"/>
      <path class="cls-1" d="M1025.99,1154.07c-2.44-1.44-5.21-2.55-8.31-3.36-3.11-.8-6.3-1.54-9.57-2.2-2.6-.53-5.09-1.08-7.46-1.65-2.37-.57-4.46-1.3-6.26-2.2-1.8-.9-3.26-2.04-4.36-3.41-1.1-1.37-1.65-3.12-1.65-5.26,0-1.8.38-3.44,1.15-4.91.77-1.47,1.85-2.74,3.26-3.81,1.4-1.07,3.07-1.9,5.01-2.5,1.94-.6,4.07-.9,6.41-.9,2.87,0,5.46.42,7.76,1.25,2.3.84,4.29,1.99,5.96,3.46,1.67,1.47,2.97,3.19,3.91,5.16.93,1.97,1.54,4.09,1.8,6.36h9.02c-.27-3.41-1.09-6.59-2.45-9.57-1.37-2.97-3.26-5.54-5.66-7.71-2.4-2.17-5.29-3.87-8.66-5.11-3.37-1.23-7.2-1.85-11.47-1.85-3.87,0-7.36.48-10.47,1.45-3.11.97-5.74,2.35-7.91,4.16-2.17,1.8-3.82,3.96-4.96,6.46-1.14,2.5-1.7,5.29-1.7,8.37,0,3.61.73,6.55,2.2,8.82,1.47,2.27,3.41,4.11,5.81,5.51,2.4,1.4,5.11,2.49,8.11,3.26,3.01.77,6.04,1.45,9.12,2.05,2.87.6,5.54,1.2,8.01,1.8,2.47.6,4.62,1.37,6.46,2.3,1.84.94,3.27,2.14,4.31,3.61,1.04,1.47,1.55,3.37,1.55,5.71,0,1.94-.4,3.67-1.2,5.21-.8,1.54-1.94,2.85-3.41,3.96-1.47,1.1-3.27,1.94-5.41,2.5-2.14.57-4.51.85-7.11.85-3.14,0-5.94-.4-8.41-1.2-2.47-.8-4.61-1.97-6.41-3.51-1.8-1.54-3.26-3.42-4.36-5.66-1.1-2.24-1.79-4.76-2.05-7.56h-8.92c.13,3.81.93,7.3,2.4,10.47,1.47,3.17,3.49,5.91,6.06,8.21,2.57,2.3,5.66,4.09,9.27,5.36,3.61,1.27,7.68,1.9,12.22,1.9,3.81,0,7.33-.49,10.57-1.45,3.24-.97,6.03-2.35,8.36-4.16,2.34-1.8,4.16-4.01,5.46-6.61,1.3-2.6,1.95-5.58,1.95-8.92,0-3.67-.72-6.68-2.15-9.02-1.44-2.34-3.37-4.22-5.81-5.66Z"/>
      <polygon class="cls-1" points="1087.08 1180.57 1062.74 1117.05 1053.22 1117.05 1081.37 1188.68 1092.79 1188.68 1120.94 1117.05 1111.42 1117.05 1087.08 1180.57"/>
      <polygon class="cls-1" points="1154.82 1156.62 1192.19 1156.62 1192.19 1148.81 1154.82 1148.81 1154.82 1125.07 1193.89 1125.07 1193.89 1117.05 1146.21 1117.05 1146.21 1188.68 1194.39 1188.68 1194.39 1180.67 1154.82 1180.67 1154.82 1156.62"/>
      <path class="cls-1" d="M1271.82,1153.42c4.14-3.61,6.21-8.75,6.21-15.43s-2.07-11.75-6.21-15.43c-4.14-3.67-10.28-5.51-18.43-5.51h-30.65v71.63h8.62v-29.85h21.72l16.95,29.85h10.12l-18.11-30.69c4-.86,7.27-2.38,9.79-4.57ZM1231.35,1125.07h21.44c5.41,0,9.47,1.02,12.17,3.06,2.7,2.04,4.06,5.33,4.06,9.87s-1.35,7.9-4.06,9.87c-2.71,1.97-6.76,2.95-12.17,2.95h-21.44v-25.75Z"/>
      <polygon class="cls-1" points="1367.71 1178.96 1352.38 1117.05 1341.56 1117.05 1326.43 1178.96 1310.11 1117.05 1300.89 1117.05 1320.82 1188.68 1332.04 1188.68 1346.97 1129.78 1362.1 1188.68 1373.32 1188.68 1393.15 1117.05 1383.94 1117.05 1367.71 1178.96"/>
      <path class="cls-1" d="M1434.64,1117.05l-27.65,71.63h9.52l7.61-20.44h32.46l7.61,20.44h9.52l-27.65-71.63h-11.42ZM1427.13,1160.23l13.22-35.66,13.22,35.66h-26.45Z"/>
      <polygon class="cls-1" points="1507.54 1117.05 1498.93 1117.05 1498.93 1188.68 1545.11 1188.68 1545.11 1180.67 1507.54 1180.67 1507.54 1117.05"/>
      <polygon class="cls-1" points="1557.46 1125.07 1581.1 1125.07 1581.1 1188.68 1589.72 1188.68 1589.72 1125.07 1613.36 1125.07 1613.36 1117.05 1557.46 1117.05 1557.46 1125.07"/>
      <path class="cls-1" d="M1688.06,1163.34c0,5.81-1.72,10.35-5.16,13.62-3.44,3.27-8.3,4.91-14.58,4.91s-11.24-1.64-14.68-4.91c-3.44-3.27-5.16-7.81-5.16-13.62v-46.28h-8.62v46.58c0,4.01.67,7.63,2,10.87,1.33,3.24,3.22,6,5.66,8.26,2.44,2.27,5.41,4.02,8.92,5.26,3.51,1.23,7.46,1.85,11.87,1.85s8.26-.62,11.77-1.85c3.51-1.24,6.48-2.99,8.91-5.26,2.44-2.27,4.32-5.02,5.66-8.26,1.33-3.24,2-6.86,2-10.87v-46.58h-8.62v46.28Z"/>
      <polygon class="cls-1" points="1780.96 1179.46 1742.09 1117.05 1730.27 1117.05 1730.27 1188.68 1738.89 1188.68 1738.89 1127.47 1777.06 1188.68 1789.58 1188.68 1789.58 1117.05 1780.96 1117.05 1780.96 1179.46"/>
      <path class="cls-1" d="M1851.93,1151.51v7.81h23.84c-.47,3.54-1.39,6.7-2.75,9.47-1.37,2.77-3.09,5.13-5.16,7.06-2.07,1.94-4.49,3.42-7.26,4.46-2.77,1.04-5.79,1.55-9.07,1.55-3.67,0-7-.67-9.97-2-2.97-1.33-5.53-3.26-7.66-5.76-2.14-2.5-3.79-5.54-4.96-9.12-1.17-3.57-1.75-7.6-1.75-12.07s.58-8.52,1.75-12.12c1.17-3.61,2.81-6.66,4.91-9.17,2.1-2.5,4.66-4.42,7.66-5.76,3.01-1.34,6.31-2,9.92-2,5.61,0,10.37,1.45,14.28,4.36,3.91,2.91,6.73,6.96,8.46,12.17h9.42c-1.94-7.68-5.71-13.69-11.32-18.03-5.61-4.34-12.52-6.51-20.74-6.51-5.01,0-9.57.87-13.67,2.6-4.11,1.74-7.61,4.21-10.52,7.41-2.9,3.21-5.16,7.1-6.76,11.67-1.6,4.58-2.4,9.7-2.4,15.38s.8,10.8,2.4,15.38c1.6,4.58,3.86,8.46,6.76,11.67,2.91,3.21,6.41,5.66,10.52,7.36,4.11,1.7,8.67,2.55,13.67,2.55,5.81,0,10.73-1.2,14.78-3.61,4.04-2.4,7.26-5.68,9.67-9.82l1.3,12.22h6.51v-37.17h-31.86Z"/>
    </g>
    <g>
      <polygon class="cls-1" points="271.65 812.66 271.65 792.61 126.37 792.61 126.37 820.22 231.22 820.22 116.18 988.5 116.18 1008.23 273.29 1008.23 273.29 980.62 156.28 980.62 271.65 812.66"/>
      <polygon class="cls-1" points="420.54 909.62 507.31 909.62 507.31 882.01 420.54 882.01 420.54 820.55 523.09 820.55 523.09 792.94 387.67 792.94 387.67 1008.23 526.38 1008.23 526.38 980.62 420.54 980.62 420.54 909.62"/>
      <polygon class="cls-1" points="760.72 881.36 679.21 881.36 679.21 792.94 646.01 792.94 646.01 1008.23 679.21 1008.23 679.21 909.95 760.72 909.95 760.72 1008.23 793.92 1008.23 793.92 792.94 760.72 792.94 760.72 881.36"/>
      <path class="cls-1" d="M1031.22,895.49c0,11.61.54,23.61,1.64,35.99,1.09,12.38,1.86,24.05,2.3,35.01h-.66l-19.72-45.69-62.78-127.86h-35.5v215.29h31.22v-103.21c0-11.61-.55-23.39-1.64-35.33-1.1-11.94-1.86-23.5-2.3-34.68h.66l19.72,45.03,62.78,128.19h35.5v-215.29h-31.22v102.55Z"/>
      <path class="cls-1" d="M1296.96,805.1c-15.01-8.11-33.25-12.16-54.72-12.16h-54.56v215.29h56.2c21.04,0,38.89-4.16,53.57-12.49,14.68-8.32,25.97-20.59,33.85-36.81,7.89-16.21,11.83-35.93,11.83-59.16s-3.94-42.78-11.83-58.67c-7.89-15.88-19.34-27.88-34.35-35.99ZM1301.4,944.79c-5.26,12.05-12.98,21.2-23.17,27.45-10.19,6.25-22.84,9.36-37.96,9.36h-19.72v-162.04h19.72c15.12,0,27.77,2.96,37.96,8.87,10.19,5.91,17.91,14.79,23.17,26.62,5.26,11.83,7.89,26.74,7.89,44.7s-2.63,32.98-7.89,45.03Z"/>
      <polygon class="cls-1" points="1498.6 909.62 1585.37 909.62 1585.37 882.01 1498.6 882.01 1498.6 820.55 1601.15 820.55 1601.15 792.94 1465.74 792.94 1465.74 1008.23 1604.44 1008.23 1604.44 980.62 1498.6 980.62 1498.6 909.62"/>
      <path class="cls-1" d="M1883.82,1008.23l-53-91.83c2.73-.83,5.4-1.76,7.97-2.83,11.61-4.81,20.76-12.05,27.45-21.69,6.68-9.64,10.03-21.91,10.03-36.81s-3.34-27.61-10.03-36.81c-6.69-9.2-15.83-15.72-27.45-19.56-11.61-3.83-24.87-5.75-39.77-5.75h-69.35v215.29h32.87v-87.43h35.2l48.94,87.43h37.14ZM1762.53,819.23h32.54c15.78,0,27.82,2.69,36.16,8.05,8.32,5.37,12.49,14.63,12.49,27.77s-4.17,22.96-12.49,29.42c-8.33,6.46-20.38,9.69-36.16,9.69h-32.54v-74.94Z"/>
    </g>
  </g>
</svg>